<svg width="134" height="24" viewBox="0 0 134 24" fill="none" xmlns="http://www.w3.org/2000/svg">
<g clip-path="url(#clip0_1_4)">
<path d="M71.4667 21.061C69.8823 21.061 68.5534 20.7426 67.4801 20.1059C66.3813 19.4936 65.5379 18.514 65.1035 17.3385L67.4546 16.5548C67.6846 17.1916 68.1445 17.7303 68.7579 18.0487C69.4478 18.465 70.3678 18.661 71.4667 18.661C72.5655 18.661 73.4088 18.4405 74.0733 17.9508C74.6355 17.5344 74.891 17.0446 74.891 16.3589V16.3344C74.891 16.0895 74.8399 15.8446 74.7377 15.6487C74.661 15.5018 74.4566 15.3548 74.201 15.2079C73.7922 14.9875 73.3322 14.7916 72.8722 14.6691C72.3611 14.4977 71.6456 14.3263 70.7511 14.1303C70.0356 13.9834 69.4734 13.861 69.0645 13.7385C68.6045 13.6161 68.1445 13.4691 67.6846 13.2977C67.199 13.1263 66.7646 12.8814 66.3813 12.563L66.3301 12.514C65.9979 12.1956 65.7168 11.8528 65.5379 11.4365C65.308 10.9467 65.2057 10.4324 65.2313 9.9181C65.2313 8.54667 65.8191 7.39565 66.9435 6.61197C67.9657 5.90177 69.2945 5.53442 70.8789 5.53442C72.54 5.53442 73.9455 5.90177 75.0444 6.66095C76.1688 7.42014 76.9099 8.52218 77.2932 9.9181L74.8655 10.4814C74.661 9.64871 74.2522 9.03646 73.6133 8.59565C72.9489 8.15483 72.0544 7.93442 70.9045 7.93442C69.8567 7.93442 69.0134 8.13034 68.4512 8.54667C67.9657 8.88953 67.7612 9.33034 67.7612 9.96708C67.7612 10.163 67.7868 10.3099 67.8634 10.4569C67.9146 10.5548 67.9912 10.6773 68.0679 10.7508C68.2212 10.8732 68.4257 10.9712 68.6045 11.0446L68.6556 11.0691C69.0134 11.2161 69.3712 11.3385 69.7289 11.412C70.0867 11.5099 70.6234 11.6324 71.2878 11.7793C72.2844 11.9997 73.0511 12.1712 73.6388 12.3671C74.2522 12.563 74.8399 12.8079 75.4021 13.1018C76.0921 13.4691 76.6032 13.9344 76.9354 14.4977V14.5222C77.2421 15.0854 77.3954 15.7222 77.3699 16.3834C77.3699 17.8038 76.7565 19.0283 75.581 19.861C74.5077 20.6691 73.1277 21.061 71.4667 21.061Z" fill="black"/>
<path d="M45.9374 16.8733L47.7518 18.6121L47.5474 18.808C46.3974 19.91 44.9663 20.6447 43.3819 20.9386C42.8453 21.0365 42.3342 21.0855 41.7975 21.0855C40.7242 21.0855 39.6765 20.8896 38.6798 20.4978C37.1721 19.91 35.9199 18.9059 35.0255 17.6325C34.1311 16.359 33.6455 14.8406 33.6455 13.2978C33.6455 11.7549 34.1311 10.261 35.0255 8.96307C35.9199 7.6896 37.1976 6.68552 38.6798 6.09776C40.162 5.51001 41.7975 5.36307 43.3819 5.65695C44.9663 5.95083 46.3974 6.68552 47.5474 7.78756L47.7518 7.98348L45.9374 9.72225L45.733 9.52634C44.9408 8.76715 43.9697 8.27736 42.8708 8.05695C41.7975 7.86103 40.6731 7.95899 39.6509 8.35083C38.6287 8.76715 37.7598 9.42838 37.1465 10.31C36.5332 11.1916 36.201 12.2202 36.201 13.2733C36.201 14.3263 36.5332 15.3549 37.1465 16.2365C37.7598 17.1182 38.6287 17.8039 39.6509 18.1957C40.6731 18.6121 41.7975 18.71 42.8708 18.4896C43.9441 18.2692 44.9408 17.7794 45.733 17.0202L45.9374 16.8733Z" fill="black"/>
<path d="M133.999 5.77968V15.3307C133.999 15.9919 133.872 16.6531 133.667 17.2654C133.412 17.9756 133.003 18.6368 132.466 19.2001C132.313 19.347 132.159 19.5185 132.006 19.6409C131.418 20.1552 130.728 20.547 129.987 20.7919C129.348 21.0123 128.684 21.1103 127.968 21.1103C127.278 21.1103 126.588 20.9878 125.95 20.7919C125.208 20.547 124.518 20.1552 123.931 19.6409C123.777 19.5185 123.624 19.3715 123.471 19.2001C123.368 19.0776 123.266 18.9797 123.19 18.8572C123.087 18.9797 123.011 19.0776 122.908 19.2001C122.755 19.347 122.602 19.5185 122.449 19.6409C121.835 20.1552 121.171 20.547 120.43 20.7919C119.791 21.0123 119.126 21.1103 118.411 21.1103C117.721 21.1103 117.031 20.9878 116.392 20.7919C115.651 20.547 114.961 20.1552 114.373 19.6409C114.22 19.5185 114.067 19.3715 113.913 19.2001C113.377 18.6368 112.968 17.9756 112.712 17.2654C112.482 16.6531 112.38 16.0164 112.38 15.3307V5.65723H114.884V15.3307C114.884 15.9185 115.038 16.5062 115.344 17.0205C115.651 17.5348 116.111 17.9511 116.622 18.2695C117.695 18.8572 119.075 18.8572 120.149 18.2695C120.685 17.9756 121.12 17.5348 121.452 17.0205C121.759 16.5062 121.912 15.9185 121.912 15.3307V5.65723H123.803H124.442V15.3307C124.442 15.9185 124.595 16.5062 124.902 17.0205C125.208 17.5348 125.668 17.9511 126.18 18.2695C127.253 18.8572 128.633 18.8572 129.706 18.2695C130.243 17.9756 130.677 17.5348 130.984 17.0205C131.29 16.5062 131.444 15.9185 131.444 15.3307V5.77968H133.999Z" fill="black"/>
<path d="M91.9861 11.2898V20.9633H89.4817V11.2898C89.4817 10.7021 89.3284 10.1143 89.0217 9.60003C88.715 9.08574 88.255 8.66942 87.7184 8.37554C86.6451 7.78778 85.2651 7.78778 84.1918 8.37554C83.6552 8.66942 83.2207 9.11023 82.8885 9.60003C82.633 10.0164 82.4796 10.4572 82.4285 10.947V20.9633H79.873V1.17554H82.4285V6.58778C82.8885 6.26941 83.3996 6.02452 83.9107 5.8286C85.1885 5.38778 86.6451 5.38778 87.9228 5.8286C88.6639 6.0735 89.3539 6.46533 89.9417 6.97962C90.095 7.10207 90.2483 7.24901 90.4017 7.42044C90.9383 8.00819 91.3472 8.64493 91.6027 9.35513C91.8583 9.96737 91.9861 10.6286 91.9861 11.2898Z" fill="black"/>
<path d="M107.397 14.8407L107.345 14.9632C107.294 15.1346 107.218 15.306 107.115 15.502C106.809 16.1387 106.374 16.7264 105.838 17.1917C105.378 17.6081 104.841 17.9264 104.253 18.1713C103.666 18.4162 103.027 18.5632 102.413 18.5877C101.672 18.6366 100.957 18.5387 100.267 18.3183C100.088 18.2693 99.909 18.1958 99.7046 18.0979C99.0401 17.804 98.4268 17.3877 97.9413 16.8734C97.8135 16.7264 97.6602 16.5795 97.5324 16.4081L109.978 11.3142L109.901 11.0693C109.799 10.7509 109.697 10.4571 109.569 10.1632C109.441 9.8693 109.288 9.57542 109.109 9.28155C108.904 8.96318 108.725 8.69379 108.547 8.44889C108.087 7.88563 107.575 7.39583 106.962 6.95501C106.528 6.63665 106.042 6.36726 105.582 6.14685C105.276 5.99991 104.969 5.87746 104.637 5.7795C104.126 5.60808 103.589 5.51012 103.052 5.43665C102.311 5.36318 101.57 5.36318 100.855 5.46114C100.165 5.5591 99.5001 5.75501 98.8868 5.99991C98.2479 6.24481 97.6602 6.58767 97.098 7.00399C96.5102 7.44481 95.9991 7.93461 95.5391 8.49787C95.2069 8.9142 94.9258 9.3795 94.6958 9.82032C94.5425 10.1387 94.4147 10.4326 94.3125 10.7264C94.1336 11.2162 94.0314 11.7305 93.9547 12.2448C93.8525 12.955 93.8781 13.6652 93.9803 14.3509C94.0825 15.0122 94.2869 15.6489 94.5425 16.2366C94.798 16.8489 95.1558 17.4122 95.5647 17.9509C96.0247 18.5142 96.5358 19.004 97.1491 19.4448C97.5835 19.7632 98.0691 20.0326 98.529 20.253C98.8357 20.3999 99.1679 20.5224 99.4746 20.6203C99.9857 20.7917 100.522 20.8897 101.059 20.9632C101.391 21.0122 101.723 21.0122 102.056 21.0122C102.464 21.0122 102.873 20.9877 103.257 20.9142C103.947 20.8162 104.611 20.6448 105.224 20.3754C105.863 20.106 106.451 19.7877 107.013 19.3713C107.601 18.9305 108.112 18.4407 108.572 17.8775C108.904 17.4611 109.185 16.9958 109.415 16.555C109.569 16.2366 109.697 15.9428 109.799 15.6489C109.978 15.1591 110.08 14.6448 110.157 14.1305L110.208 13.6407L107.397 14.8407ZM96.5358 14.155C96.5102 13.9346 96.4847 13.7632 96.4591 13.5673C96.408 12.8571 96.5102 12.1713 96.7402 11.5101C96.7913 11.3387 96.868 11.1673 96.9702 10.9713C97.2769 10.3346 97.7113 9.77134 98.2479 9.28155C98.7079 8.86522 99.2446 8.54685 99.8323 8.30195C100.42 8.05706 101.059 7.91012 101.672 7.88563C101.8 7.88563 101.928 7.86114 102.03 7.86114C102.643 7.86114 103.231 7.9591 103.819 8.15501C103.998 8.20399 104.177 8.27746 104.381 8.37542C105.046 8.6693 105.633 9.08563 106.144 9.59991C106.272 9.74685 106.4 9.91828 106.528 10.0897L96.5358 14.155Z" fill="black"/>
<path d="M63.8008 13.3223C63.8008 8.98764 60.1464 5.4856 55.6743 5.4856C51.2022 5.4856 47.5479 9.01213 47.5479 13.3223C47.5479 17.657 51.2022 21.1591 55.6743 21.1591C57.8209 21.1591 59.7631 20.3509 61.2197 19.0285V20.9631H63.7752V13.9346C63.8008 13.7387 63.8008 13.5427 63.8008 13.3223ZM55.6999 18.6856C53.9877 18.6856 52.4544 17.9264 51.4322 16.7264C51.3555 16.6529 51.3044 16.555 51.2278 16.4815C51.1766 16.408 51.1255 16.3346 51.0744 16.2611C51.0489 16.2366 51.0489 16.2121 51.0233 16.2121C50.4356 15.3795 50.1033 14.3754 50.1033 13.2734C50.1033 10.3346 52.6077 7.93458 55.6487 7.93458C58.6387 7.93458 61.0664 10.2121 61.1942 13.0529V13.3468C61.1942 13.5182 61.1942 13.6897 61.1686 13.8611C61.1686 13.9101 61.1686 13.9346 61.143 13.9836C61.1175 14.106 61.1175 14.2529 61.0664 14.3754C61.0664 14.4244 61.0408 14.4978 61.0408 14.5468C61.0153 14.6203 61.0153 14.6693 60.9897 14.7427C60.9642 14.8407 60.9386 14.9387 60.8875 15.0366C60.8619 15.1346 60.8108 15.2325 60.7597 15.355C60.7086 15.4529 60.6831 15.5509 60.6319 15.6489C60.6319 15.6489 60.6319 15.6489 60.6319 15.6734C60.5808 15.7713 60.5297 15.8693 60.4786 15.9672C60.4531 16.0162 60.4275 16.0652 60.3764 16.1142C60.3508 16.1631 60.2997 16.2121 60.2742 16.2611C60.2742 16.2856 60.2486 16.3101 60.2231 16.3346C59.2775 17.755 57.5909 18.6856 55.6999 18.6856Z" fill="black"/>
<path d="M0.907493 10.3362C0.326434 10.8931 0 11.6483 0 12.4358C-5.72597e-08 13.5804 0.968393 14.5083 2.16279 14.5083C3.3524 14.5083 4.31766 13.5879 4.3254 12.4496C4.33306 12.9385 4.74902 13.3326 5.26102 13.3326C5.77781 13.3326 6.19676 12.9311 6.19676 12.4359C6.19676 11.6484 5.87032 10.8931 5.28926 10.3362C4.70821 9.77939 3.92012 9.46656 3.09838 9.46656C2.27664 9.46656 1.48855 9.77939 0.907493 10.3362Z" fill="#121212"/>
<path d="M24.1361 13.6386C24.7171 13.0818 25.0436 12.3266 25.0436 11.5391C25.0436 10.3945 24.0752 9.46655 22.8808 9.46655C21.6912 9.46655 20.7259 10.387 20.7182 11.5253C20.7105 11.0364 20.2946 10.6423 19.7825 10.6423C19.2658 10.6423 18.8468 11.0438 18.8468 11.539C18.8468 12.3265 19.1732 13.0818 19.7543 13.6386C20.3354 14.1955 21.1235 14.5083 21.9452 14.5083C22.7669 14.5083 23.555 14.1955 24.1361 13.6386Z" fill="#121212"/>
<path d="M10.748 23.1303C11.329 23.6872 12.1171 24 12.9389 24C14.1332 24 15.1015 23.072 15.1015 21.9273C15.1015 20.7873 14.141 19.8623 12.9532 19.8549C13.4634 19.8475 13.8746 19.4489 13.8746 18.9582C13.8746 18.463 13.4557 18.0615 12.9389 18.0615C12.1172 18.0615 11.329 18.3743 10.748 18.9312C10.1669 19.488 9.84048 20.2433 9.84048 21.0308C9.84048 21.8182 10.1669 22.5735 10.748 23.1303Z" fill="#121212"/>
<path d="M14.194 0.86967C13.6129 0.312829 12.8248 3.44223e-08 12.0031 0C10.8087 -1.04906e-07 9.84042 0.928032 9.84042 2.07265C9.84042 3.21267 10.8009 4.13771 11.9887 4.14512C11.4785 4.15246 11.0673 4.55109 11.0673 5.04175C11.0673 5.53701 11.4862 5.93849 12.003 5.93849C12.8248 5.93849 13.6129 5.62566 14.194 5.06882C14.775 4.51198 15.1015 3.75674 15.1015 2.96925C15.1015 2.18175 14.775 1.42651 14.194 0.86967Z" fill="#121212"/>
<path d="M5.52397 2.95877C4.70223 2.95877 3.91414 3.2716 3.33308 3.82844L3.3333 3.82864C2.48874 4.63801 2.48874 5.95025 3.3333 6.75961C4.17539 7.5666 5.53913 7.56897 6.38429 6.76673C6.02623 7.11746 6.02868 7.67995 6.39164 8.02778C6.75707 8.37798 7.34954 8.37798 7.71497 8.02778C7.72094 8.02206 7.72682 8.01627 7.7326 8.01043C8.30255 7.45529 8.62235 6.70745 8.62235 5.92801C8.62235 5.14052 8.29591 4.38528 7.71485 3.82844C7.13379 3.2716 6.34571 2.95877 5.52397 2.95877Z" fill="#121212"/>
<path d="M18.6267 15.948C18.9897 16.2958 18.9921 16.8583 18.6341 17.2091C19.4792 16.4068 20.843 16.4092 21.6851 17.2162C22.5296 18.0255 22.5296 19.3378 21.6851 20.1471L21.6853 20.1473C21.1042 20.7042 20.3161 21.017 19.4944 21.017C18.6727 21.017 17.8846 20.7042 17.3035 20.1473C16.7225 19.5905 16.396 18.8353 16.396 18.0478C16.396 17.2683 16.7158 16.5205 17.2858 15.9654C17.2915 15.9595 17.2974 15.9537 17.3034 15.948C17.6688 15.5978 18.2613 15.5978 18.6267 15.948Z" fill="#121212"/>
<path d="M21.0235 3.19438C20.1789 2.38501 18.8096 2.38501 17.9651 3.19438C17.1248 3.9996 17.1205 5.30256 17.9522 6.11288C17.5858 5.77518 17.0031 5.77933 16.6421 6.12532C16.2767 6.4755 16.2766 7.04322 16.642 7.39342C17.223 7.95026 18.011 8.26321 18.8328 8.26321C19.6545 8.26321 20.4426 7.95038 21.0236 7.39354C21.6047 6.8367 21.9311 6.08146 21.9311 5.29397C21.9311 4.50648 21.6046 3.75122 21.0235 3.19438Z" fill="#121212"/>
<path d="M8.37529 16.582C8.74072 16.9322 8.74072 17.5 8.37529 17.8502C8.01372 18.1967 7.42988 18.2003 7.06362 17.8611C7.89677 18.6714 7.89297 19.9754 7.05222 20.7811C6.20765 21.5905 4.83833 21.5905 3.99377 20.7811C3.98451 20.7722 3.97536 20.7633 3.9663 20.7543C3.4024 20.2002 3.08622 19.4564 3.08622 18.6814C3.08622 17.8939 3.41266 17.1386 3.99372 16.5818C4.57478 16.0249 5.36286 15.7121 6.18461 15.7121C7.00635 15.7121 7.79443 16.0249 8.37549 16.5818L8.37529 16.582Z" fill="#121212"/>
</g>
<defs>
<clipPath id="clip0_1_4">
<rect width="134" height="24" fill="white"/>
</clipPath>
</defs>
</svg>
