<svg width="35" height="300" viewBox="0 0 35 300" fill="none" xmlns="http://www.w3.org/2000/svg">
<path d="M34 17.5V282.5C34 291.613 26.6127 299 17.5 299C8.3873 299 1 291.613 1 282.5V17.5C1 8.3873 8.3873 1 17.5 1C26.6127 1 34 8.3873 34 17.5Z" stroke="white" stroke-width="2"/>
<rect x="13" y="12" width="10" height="10" fill="white"/>
<rect x="13" y="142" width="10" height="10" fill="white"/>
<rect x="13" y="272" width="10" height="10" fill="white"/>
<path d="M2 16C2 8.26801 8.26801 2 16 2H19C26.732 2 33 8.26801 33 16V16C33 23.732 26.732 30 19 30H16C8.26801 30 2 23.732 2 16V16Z" fill="white"/>
<g clip-path="url(#clip0_1119_4)">
<path d="M5.75 15C5.75 21.7655 11.2345 27.25 18 27.25C24.7655 27.25 30.25 21.7655 30.25 15C30.25 8.23451 24.7655 2.75 18 2.75C11.2345 2.75 5.75 8.23451 5.75 15Z" stroke="#121212" stroke-width="1.5"/>
<path d="M23.5529 12.5068C23.8328 12.2015 23.8121 11.727 23.5068 11.4471C23.2015 11.1672 22.727 11.1879 22.4471 11.4932L23.5529 12.5068ZM17.5 18L17.0641 18.6103C17.3725 18.8306 17.7968 18.7862 18.0529 18.5068L17.5 18ZM14.4359 14.8897C14.0989 14.6489 13.6305 14.727 13.3897 15.0641C13.1489 15.4011 13.227 15.8695 13.5641 16.1103L14.4359 14.8897ZM22.4471 11.4932L16.9471 17.4932L18.0529 18.5068L23.5529 12.5068L22.4471 11.4932ZM17.9359 17.3897L14.4359 14.8897L13.5641 16.1103L17.0641 18.6103L17.9359 17.3897Z" fill="#121212"/>
</g>
<defs>
<clipPath id="clip0_1119_4">
<rect width="26" height="26" fill="white" transform="translate(5 2)"/>
</clipPath>
</defs>
</svg>
